PathFileType	4	(X/Y/Z)	/Users/niels/Desktop/University/Third Semester/Perception and Action/Exam/Gymnastics Motion Tracking/Code for Gym Tracking/Analyzed Data/Webcam_Backflip/id10_1_baseline_Sports2D/id10_1_baseline_Sports2D_px_person00.trc
DataRate	CameraRate	NumFrames	NumMarkers	Units	OrigDataRate	OrigDataStartFrame	OrigNumFrames
29.705882352941178	29.705882352941178	8	22	m	29.705882352941178	51	102
Frame#	Time	Hip			RHip			RKnee			RAnkle			RBigToe			RSmallToe			RHeel			LHip			LKnee			LAnkle			LBigToe			LSmallToe			LHeel			Neck			Head			Nose			RShoulder			RElbow			RWrist			LShoulder			LElbow			LWrist		
		X1	Y1	Z1	X2	Y2	Z2	X3	Y3	Z3	X4	Y4	Z4	X5	Y5	Z5	X6	Y6	Z6	X7	Y7	Z7	X8	Y8	Z8	X9	Y9	Z9	X10	Y10	Z10	X11	Y11	Z11	X12	Y12	Z12	X13	Y13	Z13	X14	Y14	Z14	X15	Y15	Z15	X16	Y16	Z16	X17	Y17	Z17	X18	Y18	Z18	X19	Y19	Z19	X20	Y20	Z20	X21	Y21	Z21	X22	Y22	Z22
51	1.716831683168317	0.9392267907265429	-0.5730097582385703	0.0	0.9232086532075494	-0.5707200952906822	0.0	0.9176832618866118	-0.8071271821658456	0.0	0.8573251383495833	-1.02750137753184	0.0	0.945347753898725	-1.057551301162363	0.0	0.9295005518890463	-1.0708222186693266	0.0	0.836088464560034	-1.0553657793989284	0.0	0.963454322567782	-0.5726218951762659	0.0	1.0393892246270642	-0.7868644074616116	0.0	0.9776545184978865	-0.9831768316565906	0.0	1.062625181575269	-1.024626838820088	0.0	1.0510504870551982	-1.0162443927283957	0.0	0.9536488939606628	-1.0116053318105258	0.0	0.9478990296306664	-0.25728113720405654	0.0	0.9604649502554728	-0.10958923300737458	0.0	0.9892141095413332	-0.18427468280123907	0.0	0.9257671202059135	-0.28141598388927647	0.0	1.088032002561872	-0.24320388306117952	0.0	1.163556809527394	-0.11703937330900349	0.0	0.9603647143773388	-0.28466545781708985	0.0	0.9947746729107828	-0.4066607685867082	0.0	1.0102776089236134	-0.48400181566655603	0.0
52	1.7504950495049507	0.9470776993925216	-0.5736296162153052	0.0	0.9304667317092328	-0.5707679065544563	0.0	0.9220443812450164	-0.809178547117333	0.0	0.8575339368103213	-1.031813089938616	0.0	0.9457265092508307	-1.0626719099654365	0.0	0.9295869214346094	-1.0773339720818416	0.0	0.8364216949650877	-1.058516855013312	0.0	0.972839118623378	-0.5725636387269418	0.0	1.050049062270431	-0.785583984640483	0.0	1.0123222356332295	-0.9860473744508773	0.0	1.1011104023437255	-1.0233125709863025	0.0	1.0888191678395032	-1.0151039401564679	0.0	0.991164166350785	-1.0151330650541786	0.0	0.9552468333946309	-0.25929245192672035	0.0	0.9685310165024709	-0.11127152274839326	0.0	0.9981592354177844	-0.18661796886793808	0.0	0.9337107969393934	-0.2819987051383942	0.0	1.0956646081171977	-0.24467308918464592	0.0	1.1719464628985574	-0.11840068923687355	0.0	0.9648566017223662	-0.2864001798226871	0.0	0.985174879205691	-0.4172204628643017	0.0	1.008668333542824	-0.5073647995273988	0.0
53	1.7841584158415842	0.955755931888857	-0.5742354378808151	0.0	0.9391838823146934	-0.5709754107494988	0.0	0.9275610155134517	-0.8110710336332128	0.0	0.8584066737116074	-1.0353072527417957	0.0	0.9473848687840499	-1.067497592231052	0.0	0.9301830588107176	-1.083352089069474	0.0	0.8369107917446523	-1.0609559172724132	0.0	0.9824710136346967	-0.5725083821426399	0.0	1.0603416204778755	-0.7843670623717668	0.0	1.0490377104106494	-0.9890361042395669	0.0	1.141273179382972	-1.01965750915808	0.0	1.129224061617093	-1.0120977578306736	0.0	1.0306812793976452	-1.0186107918651186	0.0	0.9632576186971857	-0.2612312613293577	0.0	0.9775372554342321	-0.11355172324146873	0.0	1.0082187635335684	-0.18956444687289184	0.0	0.9430732238928788	-0.2833772271080924	0.0	1.104476009344818	-0.24637222192508565	0.0	1.1812712599384272	-0.12007615548843027	0.0	0.9694440562886409	-0.28855087508277344	0.0	0.9808534703507932	-0.42282467273473495	0.0	1.0132322903218156	-0.5181017205620294	0.0
54	1.8178217821782179	0.9653634483133285	-0.5750980633578584	0.0	0.9492958984132545	-0.5715630355643857	0.0	0.9339487021304977	-0.8130004019506545	0.0	0.8596356376433595	-1.0374396708660967	0.0	0.9494752344990985	-1.0714912260437197	0.0	0.9302987159515044	-1.0879733018749285	0.0	0.8372785456100809	-1.0621985726735268	0.0	0.9929081437399634	-0.5727869165359943	0.0	1.071074826415097	-0.7837755715656013	0.0	1.0856044931259112	-0.9913645342179422	0.0	1.1800821437651345	-1.0140429317892028	0.0	1.1691081280752218	-1.0074875191134838	0.0	1.0701958276477759	-1.021392069077757	0.0	0.9721708866668037	-0.26316985104121454	0.0	0.9873835934299555	-0.11635791386808614	0.0	1.0191373837078077	-0.19297176463938684	0.0	0.9539649984482924	-0.28565684337499375	0.0	1.114642807133251	-0.24831869703515858	0.0	1.1914227186833586	-0.12217359016274089	0.0	0.974807786867667	-0.2912285196281825	0.0	0.9821787713489534	-0.42601929421175727	0.0	1.0220406156642725	-0.5219157033143891	0.0
55	1.8514851485148516	0.976034538774049	-0.5765420591210572	0.0	0.960690279095601	-0.572787051149229	0.0	0.94105139587584	-0.8152682238606179	0.0	0.8609316273144901	-1.0381507253835567	0.0	0.9511271624917592	-1.0743366241273349	0.0	0.9292205508607574	-1.0907636395247233	0.0	0.8373520136795968	-1.062151012365372	0.0	1.0044813504594392	-0.5737601658151953	0.0	1.0828727985555016	-0.7843084429909764	0.0	1.1200048782380436	-0.9927932400350595	0.0	1.2153770079982988	-1.0074091793837883	0.0	1.205682187271771	-1.0020038273863665	0.0	1.107476749238435	-1.0232987579119726	0.0	0.9821853625049589	-0.2652671742110637	0.0	0.998033291694029	-0.11961811213497639	0.0	1.030713079966268	-0.19668923192290946	0.0	0.9664505182637477	-0.2886735597004527	0.0	1.1263433184331457	-0.25057022665763656	0.0	1.2023037740450564	-0.12493641301818978	0.0	0.9810687602058894	-0.2945315583292929	0.0	0.9878773224341052	-0.42898004218297725	0.0	1.033252406120964	-0.524291162896661	0.0
56	1.8851485148514853	0.9878017807559573	-0.5786909271976381	0.0	0.9732341466653215	-0.5746802582178959	0.0	0.9489517824553971	-0.8178827342644553	0.0	0.8621487528707831	-1.0375915635852477	0.0	0.9520064032186392	-1.0758261692208426	0.0	0.9271709747131718	-1.0916655006998734	0.0	0.8371811361018773	-1.0609443151626756	0.0	1.0171761074732488	-0.5755490025984825	0.0	1.095934267167553	-0.7860223923942744	0.0	1.1507006432215452	-0.993611404839372	0.0	1.246123421374215	-1.0011363708790166	0.0	1.2372205509486496	-0.9968552732645148	0.0	1.1405248118471614	-1.024616899922726	0.0	0.9934442731845706	-0.2676845476747115	0.0	1.009529416675185	-0.12324703093613515	0.0	1.0428470289211689	-0.20051603427860065	0.0	0.9806249058467343	-0.29214219858477836	0.0	1.1397232671602882	-0.25328899374487274	0.0	1.2138918513858983	-0.12862678100118227	0.0	0.987682543430517	-0.29842880071854827	0.0	0.9962320597057678	-0.43248177278932554	0.0	1.0451919974554424	-0.5292505919506951	0.0
57	1.918811881188119	1.0005478657075666	-0.5813621292750676	0.0	0.9867705459941888	-0.5770257121290301	0.0	0.9579371069264274	-0.8205572308616189	0.0	0.8633740799300466	-1.0357941401804036	0.0	0.9524291620463201	-1.0758528170608932	0.0	0.9251747942028958	-1.0907694789267353	0.0	0.8370270918149204	-1.0586043727137349	0.0	1.0308137983096335	-0.5779571471964317	0.0	1.110032086298653	-0.7885391377102711	0.0	1.1768294214367947	-0.9943486983976222	0.0	1.2720966909411027	-0.9967644617091287	0.0	1.2631674829476534	-0.9934391624734491	0.0	1.1680959356438814	-1.0257870335790666	0.0	1.0060591258285188	-0.27050204984309373	0.0	1.0220175943224963	-0.12708633748478548	0.0	1.0556212520136565	-0.2042394242998215	0.0	0.9965373551784263	-0.2958661080512617	0.0	1.1547342674685237	-0.25681666508288725	0.0	1.2262321024270455	-0.13340210783291495	0.0	0.9943931583195348	-0.30257283738151974	0.0	1.007156561536317	-0.4352201126258467	0.0	1.056567945440692	-0.5386467494318443	0.0
58	1.9524752475247527	1.0141240020966205	-0.584214279479207	0.0	1.0011123174914656	-0.5795550355881314	0.0	0.968415449671016	-0.8230139684988877	0.0	0.8649045170130037	-1.0326146635933067	0.0	0.9527180054618457	-1.0744756522469343	0.0	0.9240422767029444	-1.0881940815802182	0.0	0.8372068643239603	-1.0549209240691095	0.0	1.0452559300289777	-0.5806270523993994	0.0	1.1248103052695189	-0.7913900193110648	0.0	1.1981807173415815	-0.995572817613565	0.0	1.2934127367223391	-0.9956402204534317	0.0	1.283767037576068	-0.9929218282145473	0.0	1.1898561093095252	-1.0271899309213839	0.0	1.020120080550108	-0.2736709031716028	0.0	1.0357593259386841	-0.1308993508354804	0.0	1.0692723387713932	-0.2077260533310928	0.0	1.0139912934030406	-0.2998043534709772	0.0	1.171212836305237	-0.2615318429811453	0.0	1.239432092325666	-0.13920970819717665	0.0	1.0018156331886041	-0.30635728788618977	0.0	1.022910770678714	-0.43408692184116854	0.0	1.0670319992662887	-0.5515004910695628	0.0
